<svg width="30" height="31" viewBox="0 0 30 31" fill="none" xmlns="http://www.w3.org/2000/svg">
<path d="M9.42665 0.0250214C9.08655 0.0895229 8.54122 0.300619 8.27735 0.470669C7.56784 0.916316 7.22774 1.29746 6.17226 2.82791C5.82043 3.34392 5.35719 3.94203 5.14609 4.15312C4.41312 4.89196 3.58633 5.13824 2.7009 4.8685C2.26112 4.73364 1.69819 4.41699 1.41673 4.14726C1.06491 3.80716 0.595803 3.79543 0.24984 4.11794C-0.0140299 4.36422 -0.0550763 4.63395 0.0621992 5.20274C0.337797 6.48691 1.36396 7.64207 2.56603 8.02908L2.97063 8.16395L2.98822 12.2393L3.01168 16.3205L3.17 16.9068C3.43974 17.9037 3.92057 18.7832 4.60076 19.5162C5.37478 20.3489 7.32156 21.9907 8.61745 22.9055C8.96928 23.1459 9.25074 23.3629 9.25074 23.3805C9.25074 23.398 8.594 23.8202 7.79066 24.3187C6.98146 24.8112 6.28953 25.2627 6.24262 25.3155C5.85561 25.7553 5.96116 26.4765 6.45372 26.7814C6.69413 26.928 7.43883 27.0805 7.9138 27.0805C8.11903 27.0805 8.45913 27.0394 8.67609 26.9984C8.88719 26.9515 10.9981 26.1306 13.3671 25.1689C15.7302 24.2131 17.8119 23.3687 17.9878 23.2984L18.3103 23.1752L20.6558 24.6177L23.0013 26.0543L23.0365 26.67C23.0599 27.0101 23.1068 27.3913 23.1479 27.5203C23.4 28.3647 24.133 29.2325 24.9129 29.6195C26.3437 30.3232 27.9386 30.0476 29.0175 28.9159C29.7212 28.177 30.0613 27.2564 29.9909 26.283C29.8854 24.776 28.824 23.4977 27.3698 23.1224C26.7658 22.9641 25.8335 23.0228 25.2471 23.2514L24.7956 23.4332L23.2241 22.3895C22.3563 21.8148 21.5647 21.2519 21.465 21.1346C21.3594 21.0232 21.248 20.818 21.207 20.6948C21.1425 20.4837 21.1542 20.431 21.3008 20.1319C21.4591 19.8094 21.4826 19.786 23.1303 18.6894L24.7956 17.5753L25.1709 17.7278C27.1235 18.5077 29.2404 17.4932 29.8678 15.4878C29.9147 15.3295 29.9675 14.9835 29.9851 14.7079C30.0672 13.4765 29.5042 12.3272 28.4781 11.6236C27.88 11.219 27.4285 11.0665 26.6955 11.0313C25.6283 10.9786 24.8015 11.2952 24.0568 12.0399C23.3707 12.7201 23.0306 13.5176 23.0306 14.4499V14.9307L22.6026 15.2005C22.3621 15.3471 22.1276 15.4819 22.0748 15.5054C21.981 15.5406 21.9751 15.2826 21.9869 11.864L22.0045 8.18154L22.2976 8.08185C23.6991 7.60689 24.6783 6.5045 24.9422 5.10305C25.0302 4.64568 25.0243 4.61636 24.9129 4.35835C24.8191 4.14139 24.7428 4.06516 24.52 3.97134C24.1506 3.80716 23.9454 3.85407 23.488 4.21762C22.4091 5.08546 21.3067 5.2086 20.3509 4.58118C19.9404 4.31144 19.5182 3.84234 18.9612 3.03314C17.9995 1.64929 17.8353 1.43819 17.3779 0.998409C16.5805 0.236117 15.8006 -0.0512078 14.6747 0.00743003C13.9476 0.0484765 13.2322 0.283028 12.7749 0.640718C12.5755 0.79904 12.4582 0.781449 12.0184 0.517579C11.4321 0.165752 10.9806 0.0367489 10.2183 0.0191576C9.86644 0.00743003 9.50875 0.0132938 9.42665 0.0250214ZM11.0099 1.12741C11.1565 1.18019 11.4438 1.33851 11.649 1.47337C11.9891 1.69033 12.0712 1.71965 12.4406 1.73724C12.8394 1.75484 12.8746 1.74897 13.2674 1.50856C13.8421 1.15673 14.1939 1.03946 14.7334 1.00427C15.912 0.928043 16.6508 1.43233 17.7532 3.04487C19.313 5.34933 20.1339 5.97089 21.594 5.97089C22.2976 5.97089 23.1362 5.70702 23.6815 5.32001C23.7812 5.24965 23.8691 5.2086 23.8809 5.22033C23.8985 5.23206 23.8164 5.43729 23.705 5.66598C23.142 6.85046 21.9165 7.38993 19.6003 7.47788C18.152 7.53066 16.9792 7.3782 15.783 6.9736C14.8506 6.66282 14.3229 6.34031 13.6193 5.66598C12.986 5.05614 12.8452 4.97405 12.4582 4.97405C12.1416 4.97405 11.907 5.12064 11.4907 5.56629C10.2593 6.89737 8.04867 7.58343 5.35133 7.47788C3.05859 7.38406 1.81547 6.827 1.26427 5.63666C1.16459 5.43142 1.10009 5.24965 1.11768 5.23206C1.12941 5.21447 1.26427 5.28483 1.405 5.37865C2.25525 5.9533 3.41628 6.12921 4.37208 5.8243C5.2106 5.56043 5.86734 4.99164 6.67654 3.85407C6.89937 3.53156 7.26292 3.01555 7.48574 2.6989C8.14249 1.76656 8.80509 1.21537 9.4677 1.04532C9.78434 0.96909 10.6991 1.016 11.0099 1.12741ZM13.7952 7.11433C14.9503 7.88248 16.5277 8.35159 18.3279 8.46886C18.6856 8.49232 18.9846 8.52164 18.9846 8.53336C18.9846 8.54509 18.8908 8.75619 18.7794 8.9966C18.1637 10.3277 17.0906 11.3187 16.0175 11.5415C15.4253 11.6646 15.1673 11.5298 14.8624 10.9258C14.7803 10.7616 14.6102 10.5329 14.4871 10.4156C14.1177 10.0521 13.9242 10.0169 12.4524 10.0169C11.1623 10.0169 11.1447 10.0169 10.8398 10.1694C10.5173 10.3335 10.3531 10.527 10.0541 11.0665C9.78434 11.5767 9.46184 11.6939 8.83441 11.5063C7.7672 11.1897 6.92868 10.4098 6.30712 9.16665C5.94943 8.45713 5.89666 8.5275 6.88764 8.44541C8.35358 8.32813 9.46184 8.04081 10.5232 7.5072C11.1565 7.19642 11.9774 6.59832 12.2823 6.23476L12.4934 5.97676L12.8921 6.37549C13.1091 6.59832 13.5137 6.93255 13.7952 7.11433ZM4.76495 8.46886C4.92327 8.49232 4.95845 8.53923 5.14023 9.00833C5.53897 10.0404 6.22503 11.0313 6.92282 11.606C7.67338 12.2158 8.82855 12.6497 9.51461 12.5794C10.1362 12.5149 10.6639 12.1161 11.004 11.4359C11.1037 11.2424 11.221 11.0724 11.2737 11.0489C11.3265 11.0313 11.8894 11.0137 12.5286 11.0137C13.8479 11.0137 13.7834 10.9903 14.0766 11.5708C14.6278 12.6673 15.7713 12.8784 17.2313 12.1513C18.3396 11.5943 19.4009 10.2984 19.9228 8.85587C20.0694 8.45713 20.0635 8.463 20.6441 8.41022L20.9783 8.38091V12.2451C20.9783 15.8338 20.9724 16.1094 20.8786 16.2208C20.82 16.2794 18.4041 17.7923 15.5074 19.569L10.2417 22.8058L9.58498 22.3543C7.7672 21.0994 5.73834 19.3755 5.05227 18.4959C4.66527 18.0034 4.30757 17.2938 4.13753 16.6723C4.00852 16.2149 4.00852 16.1094 3.98507 12.2862L3.96748 8.36918L4.27826 8.40436C4.44831 8.42195 4.67113 8.45127 4.76495 8.46886ZM27.276 12.1279C28.0793 12.38 28.7009 13.0485 28.9296 13.9163C29.2755 15.2005 28.396 16.6254 27.0708 16.9303C26.4551 17.071 25.8159 16.9713 25.2002 16.6254C24.9715 16.5022 24.8308 16.4612 24.7311 16.4846C24.649 16.5081 23.7284 17.0945 22.6788 17.7981C20.4857 19.2699 20.5913 19.1585 20.0753 20.4603C19.7352 21.3105 19.6062 21.5158 19.3364 21.6565C18.8087 21.9262 8.68782 25.9722 8.3829 26.0309C8.00176 26.1012 7.22187 26.0719 7.12805 25.9781C7.09873 25.9488 10.7225 23.6854 15.4488 20.7828C20.0577 17.9506 23.875 15.5816 23.9395 15.523C24.0392 15.4233 24.0568 15.3295 24.0568 14.6317C24.0568 13.887 24.0626 13.8459 24.2444 13.4648C24.5669 12.7846 25.2178 12.2334 25.8804 12.0751C26.285 11.9813 26.8655 12.0047 27.276 12.1279ZM22.7433 23.2749C23.7108 23.9199 24.5669 24.4711 24.6549 24.5063C24.7956 24.5591 24.8894 24.5298 25.3468 24.3128C25.8687 24.0606 25.8804 24.0606 26.5196 24.0606C27.1353 24.0606 27.188 24.0724 27.575 24.26C29.1172 25.0164 29.4749 26.9808 28.3022 28.2239C27.1001 29.4964 24.995 29.1563 24.2444 27.5672C24.0626 27.1802 24.0568 27.145 24.0568 26.3944C24.0568 25.6966 24.0392 25.6028 23.9395 25.5031C23.875 25.4386 22.8723 24.7995 21.7113 24.09C20.5502 23.3746 19.5769 22.7706 19.5475 22.7413C19.5182 22.712 19.6296 22.624 19.7938 22.5419C19.958 22.4598 20.216 22.2487 20.3685 22.0728L20.6499 21.7562L20.82 21.9262C20.9138 22.0259 21.7816 22.6299 22.7433 23.2749Z" fill="#EB592D"/>
<path d="M25.9978 13.0952C25.1769 13.3884 24.784 14.3794 25.1769 15.1651C25.7809 16.3731 27.5517 16.2089 27.9329 14.9071C28.2671 13.7519 27.1354 12.6906 25.9978 13.0952ZM26.8481 14.1741C26.9478 14.2797 27.0181 14.4087 27.0181 14.5025C27.0181 14.7253 26.7249 15.0009 26.4904 15.0009C26.2324 15.0009 26.0213 14.7722 26.0213 14.5025C26.0213 14.0393 26.5138 13.8458 26.8481 14.1741Z" fill="#EB592D"/>
<path d="M18.2809 20.0615C18.0932 20.1553 17.9642 20.4192 18.0111 20.6068C18.1519 21.1639 18.9845 21.0701 18.9845 20.4954C18.9845 20.1495 18.5858 19.9032 18.2809 20.0615Z" fill="#EB592D"/>
<path d="M25.8742 25.1689C25.3347 25.421 25.0298 25.9077 25.0239 26.5117C25.0239 27.0863 25.2819 27.532 25.7745 27.8017C26.4019 28.1418 27.0704 28.048 27.5571 27.5496C28.0438 27.0453 28.1317 26.3944 27.7975 25.7846C27.4281 25.0985 26.5896 24.8288 25.8742 25.1689ZM26.83 26.1422C27.0938 26.3885 27.0293 26.799 26.7068 26.9514C26.2201 27.186 25.7804 26.5527 26.1674 26.1716C26.3433 25.9898 26.6482 25.9781 26.83 26.1422Z" fill="#EB592D"/>
</svg>
