<svg width="30" height="30" viewBox="0 0 30 30" fill="none" xmlns="http://www.w3.org/2000/svg">
<path d="M20.8796 0.0893867C20.7096 0.148032 20.475 0.265324 20.3518 0.353293C19.9354 0.640657 15.7364 4.91593 15.4138 5.37923C14.716 6.37034 14.3289 7.40837 14.2057 8.61061L14.1647 8.99767L12.5871 10.5752C11.3614 11.8009 11.0095 12.1821 11.0095 12.2994C11.0095 12.3815 11.0975 12.5692 11.2089 12.7275C11.5432 13.1967 11.6019 13.6893 11.379 14.1468C11.3321 14.2406 9.26777 16.3518 6.79292 18.8384C1.91946 23.7295 2.03089 23.6005 1.83149 24.445C1.58518 25.5123 1.88427 26.5738 2.6584 27.3538C3.65537 28.3508 5.25054 28.5267 6.45864 27.7702C6.63458 27.6587 8.60507 25.741 11.2735 23.0902C15.5311 18.8443 15.8068 18.5863 16.0648 18.5217C16.405 18.4396 16.4929 18.4396 16.7803 18.5217L17.009 18.5863L12.2939 23.3072C9.70175 25.8994 7.43216 28.1396 7.25622 28.2745C6.48796 28.8727 5.81354 29.0956 4.7931 29.0956C4.14213 29.0956 4.00725 29.078 3.59086 28.9314C1.19812 28.0986 0.201139 25.5416 1.37992 23.2369C1.56758 22.8615 1.96638 22.4451 6.08917 18.3106C8.56402 15.824 10.6049 13.7362 10.6225 13.6717C10.7046 13.3961 10.3644 13.056 10.0888 13.1439C10.0302 13.1615 7.94824 15.2141 5.46166 17.7066C1.65555 21.5244 0.899023 22.3044 0.699628 22.6504C-0.473287 24.6502 -0.144871 27.1192 1.48548 28.6675C1.92532 29.0838 2.28893 29.3301 2.81674 29.5706C4.40604 30.2919 6.32375 30.0925 7.69606 29.0545C7.82508 28.9548 10.8747 25.9404 14.4696 22.3513L21.0086 15.8299L21.3312 15.7888C22.6625 15.6364 23.7181 15.2376 24.674 14.528C24.8851 14.3696 26.1167 13.1791 27.4128 11.8772L29.7645 9.51376L29.8935 9.07978C29.999 8.75136 30.0166 8.56956 29.9873 8.30565C29.9228 7.67228 29.7645 7.52567 29.0724 7.44943L28.7499 7.4201L28.7382 7.12687C28.7147 6.47004 28.5388 6.28238 27.8761 6.21787L27.5007 6.18268L27.4773 5.78389C27.4597 5.56103 27.4069 5.32059 27.3541 5.24435C27.2544 5.086 26.8849 4.96871 26.5038 4.96871H26.275L26.2457 4.55819C26.2281 4.32947 26.1753 4.08903 26.1167 4.00692C26.0111 3.83685 25.7062 3.73715 25.3132 3.73715H25.0435L25.0141 3.36768C24.9614 2.69912 24.7678 2.51732 24.1051 2.488L23.806 2.47627L23.7767 2.15372C23.7005 1.45583 23.5597 1.30922 22.9088 1.23884L22.5334 1.20366L22.5217 0.910427C22.5041 0.464719 22.4044 0.230136 22.1933 0.11871C21.9118 -0.0279047 21.2491 -0.0396339 20.8796 0.0893867ZM21.6362 1.12742C21.6244 1.25644 21.5541 1.46756 21.4778 1.59658C21.4016 1.7256 19.9589 3.20348 18.2758 4.88074C14.9564 8.18836 15.0796 8.09453 15.4666 7.09169C15.8361 6.1299 16.1704 5.71938 18.569 3.3149C20.8562 1.02185 21.0673 0.845917 21.4778 0.87524C21.6479 0.892833 21.6537 0.904562 21.6362 1.12742ZM22.8736 2.37071C22.8619 2.72844 22.7563 2.88092 22.0408 3.59054L21.3898 4.23564L21.0849 3.92482L20.7741 3.61986L21.4544 2.93957C22.1346 2.25928 22.4103 2.08334 22.7387 2.11266C22.8736 2.12439 22.8853 2.14785 22.8736 2.37071ZM24.1345 3.4967C24.1814 3.80753 23.9644 4.16527 23.3369 4.8045C22.9967 5.15638 22.6918 5.43788 22.6566 5.43788C22.6155 5.43788 22.4572 5.30299 22.2989 5.14465L22.0115 4.85142L22.5921 4.2591C23.2137 3.63745 23.4542 3.45565 23.7591 3.37941C24.0289 3.3149 24.1169 3.34422 24.1345 3.4967ZM22.9733 7.05064L25.7589 9.83631L25.4481 10.1413L25.1432 10.4521L22.3458 7.65469L19.5425 4.85142L19.8357 4.55819C19.9941 4.39985 20.1407 4.26496 20.1583 4.26496C20.1759 4.26496 21.4426 5.51998 22.9733 7.05064ZM25.3778 4.8045C25.3719 5.14465 25.1666 5.45547 24.5157 6.10057L23.8764 6.72808L23.5715 6.41726L23.2665 6.1123L23.9292 5.45547C24.6447 4.73999 24.8265 4.61684 25.1608 4.61684C25.366 4.61684 25.3778 4.62857 25.3778 4.8045ZM24.0113 11.584C23.3779 12.2291 23.1199 12.3757 22.6566 12.3815C22.4044 12.3815 22.2343 12.3463 22.0643 12.2584C21.9294 12.188 20.9383 11.2321 19.7712 10.0592C17.8887 8.17077 17.7069 7.96551 17.6365 7.71333C17.5544 7.40251 17.5896 7.05064 17.7303 6.76327C17.7831 6.66357 18.0646 6.33516 18.3579 6.03606L18.8974 5.49652L21.6948 8.29392L24.4981 11.0972L24.0113 11.584ZM26.6093 6.05366C26.6093 6.40553 26.4686 6.61666 25.7765 7.30281L25.1138 7.95964L24.803 7.64882L24.4981 7.338L25.1608 6.68117C25.8411 6.01261 26.0815 5.85426 26.4216 5.8484C26.5976 5.8484 26.6093 5.86013 26.6093 6.05366ZM27.8585 7.32627C27.835 7.67814 27.6532 7.94791 26.9964 8.60475L26.3747 9.22053L26.0698 8.9097L25.7589 8.60475L26.4041 7.95378C27.0667 7.28522 27.3893 7.06823 27.6943 7.09169C27.8585 7.10928 27.8702 7.12687 27.8585 7.32627ZM17.0031 8.43467C17.0911 8.57542 18.1291 9.66037 19.3196 10.8391C21.3195 12.8331 21.5013 12.9973 21.818 13.1146C22.0056 13.1791 22.1992 13.2378 22.2578 13.2378C22.3164 13.2378 21.7652 13.8301 20.95 14.6453L19.5425 16.0528L16.7451 13.2554L13.9418 10.4521L15.3317 9.06218L16.7216 7.67228L16.7862 7.92446C16.8213 8.05934 16.921 8.28806 17.0031 8.43467ZM29.1193 8.44054C29.1311 8.49332 29.1076 8.65166 29.0724 8.79241C29.0138 9.01527 28.744 9.30263 26.797 11.2614C25.583 12.4812 24.4336 13.6014 24.2459 13.7421C24.0641 13.8887 23.6946 14.1233 23.4248 14.2641C22.9674 14.5045 22.1698 14.8036 22.1229 14.7508C22.1053 14.7391 23.5128 13.314 25.2487 11.584C27.964 8.87452 28.4332 8.43467 28.6326 8.38189C28.9434 8.29979 29.0959 8.31738 29.1193 8.44054ZM16.1117 13.9122L18.8974 16.6979L18.2816 17.3136L17.6658 17.9294L17.314 17.7828C16.6513 17.513 16.0179 17.5365 15.3787 17.8532C15.1499 17.9705 14.0533 19.0261 10.5404 22.5272C5.39129 27.6587 5.77835 27.3362 4.82242 27.3362C4.25942 27.3362 3.96033 27.2424 3.4853 26.9198C2.99854 26.5855 2.62321 25.8231 2.62321 25.178C2.62321 24.8262 2.75809 24.3218 2.93403 24.0286C2.99854 23.9171 5.09219 21.7766 7.57877 19.2783C11.8071 15.0323 12.118 14.7098 12.2235 14.4107C12.4581 13.7656 12.4405 13.226 12.1707 12.6337L12.0417 12.3522L12.6516 11.7423C12.9918 11.4021 13.2791 11.1265 13.2967 11.1265C13.3143 11.1265 14.5811 12.3815 16.1117 13.9122Z" fill="#EB592D"/>
<path d="M12.1825 16.0879C11.9186 16.1994 7.93651 20.1638 7.7723 20.4746C7.53186 20.9438 7.65501 21.6065 8.05967 21.9877C8.41741 22.3278 9.05665 22.4275 9.51408 22.2164C9.67243 22.146 10.4407 21.4071 11.8071 20.0348C13.6897 18.1405 13.8715 17.9353 13.9418 17.6772C14.0415 17.3019 13.9888 16.9207 13.7894 16.5982C13.4727 16.0821 12.7337 15.8475 12.1825 16.0879ZM12.9859 17.0028C13.1912 17.1963 13.1618 17.4192 12.8979 17.7066L12.6751 17.947L12.3643 17.6362L12.0534 17.3254L12.2763 17.1025C12.5402 16.8327 12.7748 16.8034 12.9859 17.0028ZM11.7426 18.252C12.0417 18.5452 12.0065 18.598 10.5228 20.0817C9.25604 21.3543 9.14461 21.4482 8.95108 21.4482C8.69304 21.4482 8.54056 21.2957 8.5347 21.0376C8.52883 20.8676 8.66372 20.7151 9.90114 19.4777C11.3966 17.9881 11.4494 17.9529 11.7426 18.252Z" fill="#EB592D"/>
</svg>
