<svg width="30" height="30" viewBox="0 0 30 30" fill="none" xmlns="http://www.w3.org/2000/svg">
<path d="M4.75397 0.155194C4.66464 0.238204 4.59444 0.34037 4.59444 0.385068C4.59444 0.42338 4.69654 0.723493 4.81778 1.05553C5.08579 1.7707 5.30913 2.67103 5.46866 3.65438C5.62819 4.67604 5.62819 7.49838 5.46866 8.5839C5.33466 9.46508 5.20065 10.1355 5.14322 10.193C5.12408 10.2122 4.53063 10.1228 3.82232 9.98868C2.26532 9.70134 1.88245 9.70134 1.24433 10.0142C0.714691 10.276 0 10.9465 0 11.1764C0 11.2658 0.0638117 11.3999 0.140386 11.4701C0.229722 11.5467 1.09756 11.866 2.29722 12.2555C3.40116 12.6131 4.33281 12.926 4.35834 12.9515C4.38386 12.9834 4.32643 13.3282 4.21795 13.7305C3.99461 14.5862 3.74575 15.8632 3.63089 16.7316L3.55431 17.3446L1.92073 17.8746C0.944413 18.1875 0.229722 18.4493 0.146767 18.5323C0.0638117 18.6026 0 18.7367 0 18.826C0 19.0623 0.714691 19.7264 1.25709 19.9946C1.64634 20.1861 1.74206 20.2053 2.26532 20.2053C2.57799 20.2053 2.98639 20.1797 3.16506 20.1478L3.4905 20.0967L3.53517 20.6587C3.61812 21.7569 3.96271 23.1362 4.44129 24.26C5.49419 26.7695 7.34473 28.6468 9.78233 29.7004C10.5289 30.026 10.7076 30.0579 10.9054 29.8919C11.1798 29.6748 11.116 29.4513 10.631 28.8958C9.83976 27.9827 9.31651 27.076 8.92726 25.9266C8.67839 25.1923 8.69754 25.1093 8.99745 25.6265C9.61642 26.6865 10.7587 27.8997 11.8052 28.5957C12.8581 29.2981 13.8535 29.7067 14.9958 29.9047C15.7806 30.0388 15.9912 30.0324 16.1444 29.8791C16.3613 29.662 16.3103 29.4258 15.921 28.9533C13.8599 26.4438 12.4752 22.7275 12.3348 19.3433L12.2965 18.411L15.1298 17.881L17.963 17.351L20.1645 18.0726C21.3769 18.4621 22.3788 18.7941 22.3915 18.8069C22.4043 18.8133 22.3532 18.9091 22.2767 19.0176C22.0661 19.305 21.7789 19.969 21.6641 20.3969C21.5428 20.8758 21.5428 21.808 21.6641 22.3444C21.83 23.0404 22.232 23.7619 22.7425 24.2855C23.2721 24.8283 23.7635 25.1412 24.4718 25.3838C24.9185 25.5435 25.078 25.5626 25.748 25.5626C26.3032 25.5626 26.6159 25.5307 26.8903 25.4477C28.8174 24.8666 30.0808 23.1043 29.9724 21.1631C29.8447 18.9282 28.0261 17.1722 25.8437 17.1722C25.2822 17.1722 24.9312 17.0701 23.6103 16.5018C22.6978 16.1186 20.8026 15.1034 20.8026 15.0076C20.8026 14.8543 23.1636 13.6603 24.5228 13.1239C25.212 12.8557 25.3141 12.8302 25.831 12.8302C26.1373 12.8302 26.5648 12.7855 26.769 12.7344C28.2686 12.3513 29.4874 11.1444 29.8639 9.66303C30.2404 8.20716 29.8256 6.72575 28.7472 5.64024C27.8538 4.7399 26.8456 4.35678 25.5311 4.41424C24.459 4.46533 23.6167 4.83568 22.8254 5.60193C22.0342 6.37456 21.6322 7.26851 21.5811 8.37957C21.5364 9.39484 21.7343 10.193 22.2192 10.9082C22.3213 11.0614 22.3979 11.1955 22.3851 11.2019C22.3724 11.2083 21.3705 11.5403 20.1517 11.9362L17.9439 12.6514L15.7104 12.23C14.4853 12.0001 13.4643 11.8085 13.4515 11.8085C13.4324 11.8085 13.5281 11.3552 13.6621 10.7996C13.9748 9.53532 14.3832 7.53031 14.5299 6.5725C14.6193 5.99782 14.6448 5.44868 14.6448 4.05028C14.6448 2.48586 14.6256 2.16659 14.5044 1.49612C14.3066 0.416995 14.2236 0.174351 14.0258 0.0594137C13.8982 -0.0108255 13.8089 -0.0172109 13.6748 0.0338721C13.3877 0.136038 13.3558 0.346756 13.5153 1.13216C13.745 2.25598 13.8025 3.04139 13.7642 4.52918C13.7259 5.95951 13.6493 6.60443 13.3303 8.20078C13.1452 9.1075 12.5773 11.5595 12.539 11.6042C12.5199 11.6233 9.95463 11.1636 9.90358 11.1381C9.8972 11.1317 9.94824 10.8826 10.0184 10.5889C10.2928 9.45231 10.4141 8.5392 10.446 7.25574C10.4843 5.99782 10.4843 5.99143 10.3375 5.83818C10.1524 5.64024 9.9291 5.63385 9.73767 5.82541C9.59728 5.96589 9.5909 6.02336 9.55261 7.21743C9.53347 8.04753 9.47604 8.70522 9.3867 9.20967C9.26546 9.91206 9.03574 10.9018 8.98469 10.9465C8.95278 10.972 6.1323 10.4293 6.08764 10.391C6.06849 10.3718 6.11316 10.0589 6.18335 9.69495C6.4386 8.34125 6.47689 7.84958 6.47689 6.02975C6.47689 4.61219 6.45136 4.08859 6.36203 3.50752C6.12592 2.05165 5.59629 0.295673 5.31551 0.0849552C5.14322 -0.0491378 4.92626 -0.0235963 4.75397 0.155194ZM26.5393 5.39121C28.2494 5.79987 29.3598 7.52393 29.0343 9.26075C28.8876 10.0398 28.3133 10.9146 27.6432 11.3743C27.0944 11.751 26.6478 11.8851 25.7799 11.9362C25.0078 11.9745 24.9504 11.9873 24.1208 12.3193C22.9275 12.7983 20.9047 13.8199 20.1007 14.3563C19.2584 14.9118 18.448 15.5887 18.0396 16.0676C17.8673 16.2719 17.6758 16.4571 17.6184 16.4826C17.4653 16.5529 12.3667 17.4979 12.3348 17.466C12.3029 17.434 12.4241 16.2783 12.5135 15.7355L12.5773 15.346L13.8663 14.9246C14.5746 14.6883 17.025 13.8902 19.303 13.1494C21.5875 12.4087 23.4827 11.7638 23.5274 11.7255C23.5657 11.6808 23.6231 11.5723 23.6422 11.4829C23.6741 11.3488 23.6295 11.253 23.387 10.972C22.7361 10.2186 22.4617 9.51616 22.4617 8.61583C22.4617 7.63248 22.8191 6.82792 23.5657 6.14468C24.3697 5.41675 25.4609 5.14218 26.5393 5.39121ZM9.32289 11.9362C13.0495 12.6386 16.1061 13.2197 16.1188 13.2261C16.1252 13.2388 15.2574 13.5262 14.1917 13.8774C12.9474 14.2797 12.188 14.4968 12.0732 14.4776C11.9775 14.4584 9.55261 13.6794 6.68747 12.7472C3.82232 11.8085 1.46129 11.0423 1.44214 11.0423C1.423 11.0423 1.40386 11.0103 1.40386 10.9784C1.40386 10.8635 1.93349 10.6591 2.23979 10.6591C2.4057 10.6591 5.58991 11.2338 9.32289 11.9362ZM7.89989 14.0817C7.91265 14.0881 7.8616 14.318 7.79141 14.5925C7.59359 15.3588 7.47235 16.1442 7.42768 16.9104C7.38301 17.6001 7.38301 17.6064 7.54892 17.7725C7.74674 17.964 7.98923 17.9896 8.15514 17.8235C8.25085 17.7278 8.28276 17.5617 8.31466 16.9998C8.38486 15.9462 8.70392 14.3307 8.83792 14.3818C8.86983 14.401 9.50794 14.6053 10.2418 14.8416C10.982 15.0778 11.601 15.2885 11.6201 15.3077C11.6456 15.3332 11.6265 15.5887 11.5754 15.8824C11.5308 16.1761 11.4606 16.8849 11.4223 17.466C11.167 21.1439 12.2072 25.071 14.2683 28.1998C14.5235 28.5957 14.7022 28.9213 14.6512 28.9213C14.4725 28.9213 13.7195 28.6404 13.158 28.3658C11.167 27.3888 9.693 25.5882 8.73582 22.9574C8.44229 22.1464 8.3019 21.974 8.00837 22.0507C7.67655 22.1337 7.6255 22.3316 7.63188 23.4938C7.63188 24.3302 7.66379 24.6878 7.77865 25.2178C7.99561 26.2459 8.46781 27.4016 8.99107 28.2189C9.06764 28.3403 8.98469 28.302 8.6082 28.0402C4.96455 25.5243 3.61812 21.0865 4.76035 15.3843C4.90712 14.6564 5.2198 13.3665 5.27085 13.2708C5.28999 13.2388 7.80417 14.0115 7.89989 14.0817ZM20.6239 15.9654C21.5364 16.5082 22.9722 17.2233 24.057 17.6575C24.9631 18.0215 25.0014 18.0279 25.7799 18.0726C26.9222 18.13 27.5411 18.4046 28.2048 19.1325C29.4108 20.4543 29.3725 22.4529 28.1218 23.7109C26.5967 25.2306 24.14 24.9624 22.9595 23.149C22.6149 22.6126 22.4617 22.0762 22.4617 21.3866C22.4617 20.4926 22.7361 19.7839 23.3806 19.0368C23.5401 18.8452 23.6741 18.6728 23.6741 18.6409C23.6741 18.4812 23.5338 18.2514 23.4061 18.1939C23.3232 18.162 22.232 17.798 20.9749 17.3957C18.9393 16.7316 18.6968 16.6422 18.7734 16.5465C18.901 16.3932 19.871 15.5759 19.9284 15.5759C19.9539 15.5759 20.2666 15.7483 20.6239 15.9654ZM3.46498 18.6856C3.45221 18.8899 3.42669 19.0878 3.41393 19.1262C3.38202 19.2283 2.41208 19.3688 2.0675 19.3177C1.77397 19.2794 1.40386 19.1198 1.40386 19.0368C1.40386 18.9921 3.26716 18.3408 3.42669 18.328C3.47774 18.3216 3.4905 18.4302 3.46498 18.6856Z" fill="#EB592D"/>
<path d="M25.308 6.06167C24.5039 6.20215 23.7765 6.78322 23.4 7.58139C23.2213 7.96452 23.1958 8.07307 23.1958 8.5839C23.1958 9.51616 23.5212 10.1802 24.2423 10.723C24.7081 11.0742 25.1229 11.2019 25.8185 11.2019C26.3545 11.2019 26.4247 11.1891 26.8777 10.9593C28.4092 10.2058 28.824 8.35402 27.7711 6.9684C27.267 6.30432 26.1886 5.90842 25.308 6.06167ZM26.5268 7.12165C27.2734 7.47923 27.6307 8.34764 27.3755 9.18412C27.1649 9.86736 26.38 10.3846 25.6398 10.3207C24.1913 10.193 23.5276 8.39234 24.5805 7.42814C24.9187 7.11526 25.0081 7.06418 25.3207 6.98117C25.7036 6.87262 26.1056 6.9237 26.5268 7.12165Z" fill="#EB592D"/>
<path d="M16.9161 14.5925C16.7565 14.7202 16.7183 14.8096 16.7183 15.0011C16.7183 15.1927 16.7565 15.2821 16.9161 15.4098C17.1777 15.6333 17.4457 15.6269 17.6818 15.3906C17.8094 15.2629 17.8669 15.1416 17.8669 15.0011C17.8669 14.8607 17.8094 14.7393 17.6818 14.6116C17.4457 14.3754 17.1777 14.369 16.9161 14.5925Z" fill="#EB592D"/>
<path d="M24.9885 18.8898C23.4953 19.3879 22.7551 21.0481 23.4124 22.4401C24.1845 24.1003 26.3158 24.4898 27.5984 23.2063C28.8555 21.9484 28.4982 19.8412 26.8965 19.0494C26.2967 18.7493 25.5884 18.6919 24.9885 18.8898ZM26.5328 19.8476C26.8327 20.0009 27.2092 20.4095 27.3496 20.7288C27.407 20.8629 27.4517 21.1438 27.4517 21.3609C27.458 22.3251 26.7114 23.0722 25.7543 23.0658C25.2884 23.0658 24.9885 22.9509 24.6312 22.6252C24.2228 22.2549 24.0952 21.9548 24.0888 21.3865C24.0888 20.9714 24.1143 20.8629 24.2866 20.5564C24.4908 20.1924 24.9056 19.8476 25.2948 19.7263C25.582 19.6369 26.2456 19.7007 26.5328 19.8476Z" fill="#EB592D"/>
</svg>
