<svg width="255" height="160" viewBox="0 0 255 160" fill="none" xmlns="http://www.w3.org/2000/svg">
<path d="M87.5434 19.3134C83.4671 23.3844 79.9597 27.266 79.6753 27.9761C78.7748 30.4376 79.5331 31.5737 87.9225 40.1418L96.0276 48.4731L99.061 46.0116C100.72 44.6862 103.753 42.698 105.839 41.5619C109.583 39.5264 113.423 36.5441 114.276 34.982C114.513 34.5086 114.56 33.7986 114.418 33.4199C113.754 31.7157 112.048 32.7098 106.787 37.9643L101.478 43.266L100.246 42.1299L99.061 40.9939L104.559 35.4081C108.493 31.4791 110.01 29.6329 109.773 29.1122C109.631 28.6862 109.489 28.2128 109.489 28.1181C109.489 28.0234 109.015 27.9288 108.446 27.9288C107.735 27.9288 105.649 29.6329 102.047 33.2305L96.7385 38.5323L95.5062 37.3962L94.3212 36.2601L99.8194 30.6743C103.753 26.7453 105.27 24.8992 105.033 24.3785C104.891 23.9524 104.749 23.4791 104.749 23.3844C104.749 23.2897 104.275 23.195 103.706 23.195C102.995 23.195 100.91 24.8992 97.3073 28.4968L91.9987 33.7986L90.7664 32.6625L89.5815 31.5264L95.0796 25.9406C99.0136 22.0116 100.53 20.1654 100.293 19.6447C100.151 19.2187 100.009 18.7453 100.009 18.6507C100.009 18.556 99.535 18.4613 98.9188 18.4613C98.2079 18.4613 96.2171 20.1181 92.6623 23.6684C89.8184 26.5086 87.3064 28.8755 87.1168 28.8755C86.4058 28.8755 86.2636 26.9347 86.9272 25.6566C87.3064 24.9465 89.2497 22.8637 91.2404 21.1122C95.3166 17.4199 96.4067 15.7157 95.9802 13.6802C95.7906 12.9228 95.5062 12.2128 95.3166 12.1181C95.127 11.9761 91.6196 15.2424 87.5434 19.3134Z" fill="white"/>
<path d="M148.592 17.6094C140.297 26.9348 132.903 32.1419 121.291 36.923C106.787 42.8401 100.009 47.1005 94.9848 53.3963C92.0461 57.136 87.9225 65.6094 86.548 71.0058C85.1734 76.0709 84.3677 80.994 84.8416 80.71C85.0312 80.5679 86.311 78.5324 87.6855 76.1182C96.8807 59.9289 103.232 54.2011 119.063 47.6212C125.888 44.8283 131.955 41.6567 135.178 39.2898C139.728 35.8815 145.606 29.491 148.07 25.278C151.009 20.3076 154.137 12.7336 153.237 12.8283C153.047 12.8283 150.962 15.0058 148.592 17.6094Z" fill="white"/>
<path d="M152.857 30.9111C149.208 34.6507 144.752 38.8164 142.904 40.1892C138.922 43.1241 131.623 46.8164 122.381 50.6034C118.636 52.1182 113.896 54.4377 111.764 55.6685C107.261 58.3667 101.478 63.8578 98.8239 67.9288C95.1743 73.4673 91.6195 83.4081 90.8137 90.414L90.4819 93.0176L92.7096 89.2306C101.194 74.7927 105.981 69.2543 114.086 64.4259C115.887 63.3844 120.532 61.1596 124.419 59.5028C128.353 57.846 132.713 55.8578 134.135 55.1478C143.378 50.5087 152.431 41.2306 156.507 32.2365C157.834 29.3963 159.825 24.1418 159.588 24.1418C159.54 24.1418 156.507 27.2188 152.857 30.9111Z" fill="white"/>
<path d="M161.436 39.6687C151.151 50.9349 145.369 54.8166 127.831 62.0592C119.774 65.3728 115.413 67.9764 111.053 72.0947C105.602 77.3018 102.237 82.6983 99.535 90.7929C98.1604 94.8639 96.4067 103.101 96.8333 103.479C96.9281 103.621 98.1604 101.728 99.535 99.3136C106.076 87.858 111.811 80.9941 118.684 76.5917C120.769 75.219 126.125 72.5681 130.533 70.6746C140.25 66.5089 143.757 64.6154 148.212 61.2071C154.042 56.8048 158.735 51.1716 162.053 44.6391C163.854 40.9941 165.987 35.503 165.513 35.503C165.323 35.503 163.475 37.3965 161.436 39.6687Z" fill="white"/>
<path d="M144.326 67.0767C143.283 67.7394 140.582 70.1063 138.307 72.3312L134.136 76.4495L133.093 75.3607C132.192 74.5087 132.098 74.1773 132.572 73.4199C133.046 72.7099 132.192 72.8992 128.638 74.4613L124.182 76.4495L138.496 90.7454C147.881 100.071 153.332 105.136 154.185 105.325C156.744 105.988 157.977 105.136 165.655 97.4673C173.665 89.4673 173.95 89.0412 170.205 88.9939C168.783 88.9939 167.978 89.6093 163.759 93.7276C158.925 98.5087 157.455 99.3134 156.033 97.8933C155.559 97.4199 156.65 96.1418 160.963 91.7868C166.508 86.2483 167.125 85.1596 165.134 84.4022C164.612 84.2128 162.764 85.7276 158.83 89.6566L153.332 95.1477L152.005 93.8696L150.725 92.5442L156.223 87.0531C160.157 83.1241 161.674 81.2779 161.484 80.7572C160.726 78.769 159.636 79.3844 154.09 84.9229L148.545 90.4613L147.407 89.2306L146.269 88.0471L151.625 82.6507C157.029 77.1596 157.55 76.1655 155.844 75.0767C155.133 74.6507 154.185 75.4081 149.398 80.1418L143.805 85.7276L142.667 84.4968L141.53 83.3134L146.838 77.917C149.777 74.982 152.147 72.2838 152.147 71.9051C152.147 71.1004 151.246 70.059 150.535 70.059C150.298 70.059 147.597 72.5205 144.563 75.5028L139.065 80.9465L137.927 79.7631L136.79 78.5323L142.146 73.1832C145.748 69.5856 147.454 67.5501 147.312 66.982C147.075 65.7039 146.412 65.7039 144.326 67.0767Z" fill="white"/>
<path d="M9.00537 133.917V145.325H11.3753H13.7451V140.355C13.7451 136.52 13.8873 135.384 14.3613 135.384C14.7405 135.384 16.352 137.609 17.9636 140.355L20.8548 145.325H23.6987H26.5425L23.2247 140.355C21.4236 137.657 19.9069 135.29 19.9069 135.148C19.9069 135.006 20.2386 134.911 20.6178 134.911C20.997 134.911 21.9924 134.296 22.7981 133.586C25.642 131.029 24.931 125.87 21.4236 123.834C20.1912 123.171 18.5797 122.887 14.4087 122.698L9.00537 122.461V133.917ZM19.0063 127.337C20.0964 127.952 20.2386 130.272 19.1485 131.313C18.6745 131.787 17.5844 132.071 16.0676 132.071H13.7451V129.467V126.864H15.9254C17.1104 126.864 18.4849 127.1 19.0063 127.337Z" fill="white"/>
<path d="M29.7184 122.935C29.197 123.456 29.3392 137.846 29.908 139.882C30.9981 143.905 35.0269 146.225 39.8615 145.657C43.132 145.278 45.0753 144.047 46.355 141.538C47.303 139.598 47.3978 138.84 47.3978 131.03V122.603H45.0279H42.658V130.414C42.658 140.355 42.184 141.538 38.2026 141.538C37.1598 141.538 36.3067 141.16 35.5009 140.308C34.4108 139.124 34.3634 138.793 34.2212 130.84L34.0316 122.603H32.0409C30.9033 122.603 29.8606 122.745 29.7184 122.935Z" fill="white"/>
<path d="M52.6113 133.917V145.325H58.4413C63.0388 145.325 64.603 145.136 66.1197 144.426C69.8167 142.769 71.76 139.219 71.76 134.201C71.76 130.651 70.9543 128.236 69.0584 126.059C66.8781 123.597 65.0295 122.982 58.4413 122.698L52.6113 122.461V133.917ZM64.5082 128.047C67.7312 130.935 67.589 138.225 64.2712 140.402C63.4654 140.875 61.9961 141.207 60.2898 141.254L57.5881 141.302L57.4459 134.012L57.3037 126.769L60.3846 126.958C62.5649 127.1 63.7498 127.432 64.5082 128.047Z" fill="white"/>
<path d="M76.3101 133.964V145.325H82.9457H89.5814V143.432V141.538H85.3156H81.0498V138.935V136.331H84.8417H88.6335V134.201V132.071H84.8417H81.0498V129.467V126.864H85.3156H89.5814V124.733V122.603H82.9457H76.3101V133.964Z" fill="white"/>
<path d="M102.758 122.84C102.521 123.077 102.379 128.189 102.379 134.296V145.325H108.541C115.461 145.325 117.025 144.852 118.257 142.485C118.636 141.728 118.968 140.118 118.968 138.887C118.968 136.899 118.779 136.473 117.072 134.816C115.982 133.822 115.318 133.018 115.508 133.018C116.219 133.018 117.546 130.319 117.546 128.994C117.546 127.053 116.266 124.781 114.702 123.834C113.138 122.935 103.422 122.13 102.758 122.84ZM112.427 127.668C114.465 129.515 112.617 132.071 109.252 132.071H107.119V129.467V126.864H109.346C110.721 126.864 111.858 127.148 112.427 127.668ZM113.944 136.899C114.987 138.367 114.892 139.029 113.517 140.355C112.569 141.349 111.906 141.538 109.726 141.538H107.119V138.698V135.858H110.152C112.806 135.858 113.328 136 113.944 136.899Z" fill="white"/>
<path d="M129.206 122.982C129.111 123.171 127.405 127.716 125.462 133.018C123.471 138.367 121.67 143.29 121.386 144L120.864 145.325H123.424H125.936L126.552 143.195L127.168 141.018L132.145 141.16L137.122 141.302L137.833 143.29C138.496 145.325 138.496 145.325 140.819 145.325C142.098 145.325 143.141 145.231 143.141 145.089C143.141 144.946 141.293 139.834 139.065 133.728L134.941 122.603H132.192C130.676 122.603 129.348 122.745 129.206 122.982ZM134.041 132.639L135.558 136.804H132.192C129.68 136.804 128.874 136.662 129.017 136.189C129.159 135.905 129.822 133.822 130.581 131.692C131.292 129.515 132.05 127.905 132.24 128.142C132.429 128.331 133.235 130.367 134.041 132.639Z" fill="white"/>
<path d="M146.933 133.917V145.325H149.303H151.673V140.355C151.673 136.71 151.815 135.384 152.289 135.384C152.573 135.384 154.138 137.609 155.702 140.355L158.546 145.278L161.295 145.325C162.764 145.325 163.996 145.231 163.996 145.089C163.996 144.946 162.717 142.911 161.152 140.544C159.541 138.225 158.166 136.047 158.024 135.716C157.929 135.384 158.403 134.911 159.209 134.627C163.285 133.065 163.285 125.87 159.162 123.739C158.119 123.171 155.939 122.887 152.289 122.698L146.933 122.461V133.917ZM157.076 127.621C158.166 128.662 158.024 130.461 156.792 131.313C156.223 131.739 154.801 132.071 153.711 132.071H151.673V129.467V126.864H153.995C155.512 126.864 156.602 127.148 157.076 127.621Z" fill="white"/>
<path d="M167.788 133.917V145.325H173.855C179.069 145.325 180.064 145.183 181.439 144.378C183.145 143.337 184.377 140.97 184.377 138.84C184.377 137.515 182.813 134.438 182.15 134.438C181.913 134.438 181.486 134.248 181.107 134.012C180.538 133.68 180.633 133.349 181.486 132.307C182.15 131.408 182.481 130.319 182.481 128.804C182.481 124.449 180.301 123.077 172.907 122.698L167.788 122.461V133.917ZM177.647 127.432C178.453 128.236 178.358 130.177 177.41 131.219C176.888 131.787 175.988 132.071 174.566 132.071H172.528V129.467V126.864H174.803C176.035 126.864 177.315 127.1 177.647 127.432ZM178.879 136.615C179.306 136.994 179.638 137.941 179.638 138.698C179.638 140.591 178.121 141.538 175.04 141.538H172.528V138.698V135.858H175.324C177.268 135.858 178.405 136.094 178.879 136.615Z" fill="white"/>
<path d="M188.643 133.964V145.325H195.279H201.914V143.432V141.538H197.649H193.383V138.935V136.378L197.08 136.236L200.729 136.094L200.872 134.059L201.014 132.071H197.222H193.383V129.467V126.864H197.696H201.962L201.82 124.828L201.677 122.84L195.184 122.698L188.643 122.556V133.964Z" fill="white"/>
<path d="M206.654 133.917V145.325H209.024H211.394V140.355C211.394 136.71 211.536 135.384 212.01 135.384C212.295 135.384 213.859 137.609 215.423 140.26L218.314 145.089L221.016 145.231C222.485 145.325 223.717 145.231 223.717 145.089C223.717 144.946 222.438 142.911 220.874 140.544C217.461 135.526 217.177 134.911 218.267 134.911C219.499 134.911 221.727 132.355 222.059 130.556C222.296 129.325 222.106 128.236 221.442 126.722C220.068 123.645 218.551 122.982 212.01 122.698L206.654 122.461V133.917ZM216.797 127.621C217.888 128.662 217.745 130.461 216.513 131.313C215.944 131.739 214.522 132.071 213.432 132.071H211.394V129.467V126.864H213.717C215.233 126.864 216.323 127.148 216.797 127.621Z" fill="white"/>
<path d="M230.59 123.266C227.936 124.45 226.798 126.154 226.798 129.089C226.798 131.408 226.94 131.834 228.267 133.018C229.121 133.728 231.49 134.911 233.623 135.621C237.984 137.041 239.216 138.225 238.458 140.213C238.031 141.396 236.799 142.012 234.761 142.012C233.576 142.012 230.827 139.834 230.827 138.888C230.827 138.083 230.448 138.083 227.746 138.746C225.755 139.266 225.708 139.314 226.182 140.639C227.319 143.905 231.822 146.13 236.325 145.657C240.875 145.183 243.103 143.29 243.482 139.503C243.814 135.905 241.871 133.917 236.135 132.024C232.628 130.888 231.301 129.988 231.301 128.71C231.301 127.527 233.102 126.39 234.998 126.39C236.467 126.39 238.884 128.095 238.884 129.136C238.884 129.373 239.785 129.373 241.017 129.089C242.534 128.757 243.15 128.379 243.15 127.763C243.15 126.533 240.875 124.071 239.027 123.314C236.941 122.461 232.486 122.414 230.59 123.266Z" fill="white"/>
</svg>
