<svg width="38" height="39" viewBox="0 0 38 39" fill="none" xmlns="http://www.w3.org/2000/svg">
<path d="M3.32862 2.96989C1.66617 4.64918 0.235682 6.25036 0.119697 6.54326C-0.247589 7.55865 0.0617044 8.02728 3.48327 11.5616L6.78884 14.9983L8.02602 13.9829C8.7026 13.4362 9.93977 12.616 10.7903 12.1474C12.3175 11.3078 13.8833 10.0776 14.2312 9.4332C14.3279 9.23794 14.3472 8.94504 14.2892 8.78882C14.0186 8.08586 13.3227 8.49592 11.1769 10.6634L9.01189 12.8504L8.50929 12.3817L8.02602 11.9131L10.2684 9.60894C11.8729 7.98823 12.4914 7.22669 12.3948 7.0119C12.3368 6.83616 12.2788 6.64089 12.2788 6.60184C12.2788 6.56279 12.0855 6.52373 11.8535 6.52373C11.5636 6.52373 10.713 7.22669 9.24386 8.71072L7.0788 10.8977L6.5762 10.4291L6.09293 9.96042L8.33531 7.65628C9.93977 6.03557 10.5584 5.27403 10.4617 5.05924C10.4037 4.8835 10.3457 4.68823 10.3457 4.64918C10.3457 4.61012 10.1524 4.57107 9.92044 4.57107C9.63048 4.57107 8.77992 5.27403 7.31077 6.75805L5.14572 8.94504L4.64312 8.4764L4.15985 8.00776L6.40222 5.70362C8.00669 4.08291 8.62527 3.32137 8.52862 3.10657C8.47063 2.93083 8.41263 2.73557 8.41263 2.69651C8.41263 2.65746 8.21932 2.61841 7.96802 2.61841C7.67806 2.61841 6.86616 3.30184 5.41635 4.76634C4.2565 5.93794 3.23196 6.91427 3.15464 6.91427C2.86468 6.91427 2.80669 6.11367 3.07732 5.58646C3.23196 5.29356 4.02453 4.43438 4.83643 3.7119C6.49888 2.18882 6.94349 1.48586 6.76951 0.646219C6.69219 0.333793 6.5762 0.0408934 6.49888 0.00184011C6.42156 -0.0567398 4.99107 1.2906 3.32862 2.96989Z" fill="white"/>
<path d="M28.2266 2.26671C24.8437 6.11345 21.8281 8.26138 17.092 10.2336C11.1768 12.6744 8.41247 14.4318 6.3634 17.0288C5.16489 18.5714 3.4831 22.0667 2.92251 24.2927C2.36191 26.3821 2.03329 28.4129 2.2266 28.2957C2.30392 28.2371 2.82585 27.3975 3.38645 26.4016C7.13663 19.7235 9.72697 17.3608 16.1835 14.6466C18.9671 13.4945 21.4415 12.1862 22.756 11.2099C24.6117 9.80399 27.0088 7.16789 28.014 5.43002C29.2125 3.37972 30.4883 0.255464 30.121 0.294518C30.0437 0.294518 29.1931 1.19274 28.2266 2.26671Z" fill="white"/>
<path d="M29.9667 7.75387C28.4783 9.29647 26.6612 11.0148 25.9073 11.5811C24.2835 12.7917 21.3065 14.3148 17.537 15.8769C16.0099 16.5018 14.0768 17.4586 13.2069 17.9663C11.3705 19.0793 9.0121 21.3444 7.92957 23.0237C6.4411 25.3083 4.99128 29.4089 4.66266 32.2988L4.52734 33.3728L5.43589 31.8107C8.89612 25.8551 10.8485 23.5704 14.1541 21.5787C14.8887 21.1491 16.7831 20.2314 18.3682 19.548C19.9727 18.8645 21.7511 18.0444 22.3311 17.7515C26.1006 15.8379 29.7928 12.0107 31.4552 8.30061C31.9965 7.12902 32.8084 4.96156 32.7117 4.96156C32.6924 4.96156 31.4552 6.23079 29.9667 7.75387Z" fill="white"/>
<path d="M33.4654 11.3662C29.2706 16.0135 26.9122 17.6147 19.7598 20.6023C16.4736 21.9691 14.6951 23.0431 12.9167 24.7419C10.6936 26.8898 9.32114 29.1159 8.21928 32.4549C7.65869 34.1342 6.94344 37.5319 7.11742 37.6881C7.15608 37.7466 7.65869 36.9656 8.21928 35.9697C10.8869 31.2443 13.226 28.4129 16.0289 26.5969C16.8795 26.0307 19.0639 24.9372 20.8617 24.1561C24.8245 22.4378 26.255 21.6567 28.0721 20.2508C30.4498 18.4348 32.3635 16.1111 33.7167 13.4165C34.4513 11.9129 35.3211 9.64783 35.1278 9.64783C35.0505 9.64783 34.2966 10.4289 33.4654 11.3662Z" fill="white"/>
<path d="M26.4871 22.6721C26.0618 22.9455 24.96 23.9219 24.0321 24.8396L22.331 26.5384L21.9057 26.0893C21.5384 25.7378 21.4997 25.6011 21.693 25.2887C21.8864 24.9958 21.5384 25.0739 20.0886 25.7183L18.2715 26.5384L24.1094 32.4355C27.9369 36.2822 30.16 38.3716 30.5079 38.4497C31.5518 38.723 32.0544 38.3716 35.186 35.2082C38.4529 31.9082 38.5689 31.7325 37.0417 31.713C36.4618 31.713 36.1332 31.9668 34.4127 33.6656C32.441 35.6378 31.8417 35.9698 31.2618 35.384C31.0685 35.1887 31.5131 34.6615 33.2722 32.865C35.5339 30.5804 35.7852 30.1313 34.9733 29.8189C34.7607 29.7408 34.0068 30.3656 32.4023 31.9864L30.16 34.2514L29.6187 33.7242L29.0968 33.1775L31.3391 30.9124C32.9436 29.2917 33.5622 28.5301 33.4849 28.3153C33.1756 27.4952 32.731 27.7491 30.4693 30.0337L28.2075 32.3183L27.7436 31.8106L27.2797 31.3224L29.464 29.0964C31.6678 26.8313 31.8804 26.4213 31.1845 25.9721C30.8945 25.7964 30.5079 26.1088 28.5555 28.0615L26.2745 30.3656L25.8105 29.8579L25.3466 29.3698L27.5116 27.1437C28.7101 25.9331 29.6767 24.8201 29.6767 24.6639C29.6767 24.3319 29.3094 23.9023 29.0194 23.9023C28.9228 23.9023 27.8209 24.9177 26.5838 26.1479L24.3414 28.3935L23.8774 27.9053L23.4135 27.3976L25.5979 25.1911C27.067 23.7071 27.7629 22.8674 27.7049 22.6331C27.6083 22.1059 27.3377 22.1059 26.4871 22.6721Z" fill="white"/>
</svg>
