<?xml version="1.0" standalone="no"?>
<!DOCTYPE svg PUBLIC "-//W3C//DTD SVG 20010904//EN"
 "http://www.w3.org/TR/2001/REC-SVG-20010904/DTD/svg10.dtd">
<svg version="1.0" xmlns="http://www.w3.org/2000/svg"
 width="538.000000pt" height="338.000000pt" viewBox="0 0 538.000000 338.000000"
 preserveAspectRatio="xMidYMid meet">

<g transform="translate(0.000000,338.000000) scale(0.100000,-0.100000)"
fill="#000000" stroke="none">
<path d="M1847 2972 c-86 -86 -160 -168 -166 -183 -19 -52 -3 -76 174 -257
l171 -176 64 52 c35 28 99 70 143 94 79 43 160 106 178 139 5 10 6 25 3 33
-14 36 -50 15 -161 -96 l-112 -112 -26 24 -25 24 116 118 c83 83 115 122 110
133 -3 9 -6 19 -6 21 0 2 -10 4 -22 4 -15 0 -59 -36 -135 -112 l-112 -112 -26
24 -25 24 116 118 c83 83 115 122 110 133 -3 9 -6 19 -6 21 0 2 -10 4 -22 4
-15 0 -59 -36 -135 -112 l-112 -112 -26 24 -25 24 116 118 c83 83 115 122 110
133 -3 9 -6 19 -6 21 0 2 -10 4 -23 4 -15 0 -57 -35 -132 -110 -60 -60 -113
-110 -117 -110 -15 0 -18 41 -4 68 8 15 49 59 91 96 86 78 109 114 100 157 -4
16 -10 31 -14 33 -4 3 -78 -66 -164 -152z"/>
<path d="M3135 3008 c-175 -197 -331 -307 -576 -408 -306 -125 -449 -215 -555
-348 -62 -79 -149 -258 -178 -372 -29 -107 -46 -211 -36 -205 4 3 31 46 60 97
194 342 328 463 662 602 144 59 272 126 340 176 96 72 220 207 272 296 62 105
128 265 109 263 -4 0 -48 -46 -98 -101z"/>
<path d="M3225 2727 c-77 -79 -171 -167 -210 -196 -84 -62 -238 -140 -433
-220 -79 -32 -179 -81 -224 -107 -95 -57 -217 -173 -273 -259 -77 -117 -152
-327 -169 -475 l-7 -55 47 80 c179 305 280 422 451 524 38 22 136 69 218 104
83 35 175 77 205 92 195 98 386 294 472 484 28 60 70 171 65 171 -1 0 -65 -65
-142 -143z"/>
<path d="M3406 2542 c-217 -238 -339 -320 -709 -473 -170 -70 -262 -125 -354
-212 -115 -110 -186 -224 -243 -395 -29 -86 -66 -260 -57 -268 2 -3 28 37 57
88 138 242 259 387 404 480 44 29 157 85 250 125 205 88 279 128 373 200 123
93 222 212 292 350 38 77 83 193 73 193 -4 0 -43 -40 -86 -88z"/>
<path d="M3045 1963 c-22 -14 -79 -64 -127 -111 l-88 -87 -22 23 c-19 18 -21
25 -11 41 10 15 -8 11 -83 -22 l-94 -42 302 -302 c198 -197 313 -304 331 -308
54 -14 80 4 242 166 169 169 175 178 96 179 -30 0 -47 -13 -136 -100 -102
-101 -133 -118 -163 -88 -10 10 13 37 104 129 117 117 130 140 88 156 -11 4
-50 -28 -133 -111 l-116 -116 -28 27 -27 28 116 116 c83 83 115 122 111 133
-16 42 -39 29 -156 -88 l-117 -117 -24 26 -24 25 113 114 c114 116 125 137 89
160 -15 9 -35 -7 -136 -107 l-118 -118 -24 26 -24 25 112 114 c62 62 112 119
112 127 0 17 -19 39 -34 39 -5 0 -62 -52 -126 -115 l-116 -115 -24 25 -24 26
113 113 c76 76 112 119 109 131 -5 27 -19 27 -63 -2z"/>
<path d="M190 551 l0 -241 50 0 50 0 0 105 c0 81 3 105 13 105 8 0 42 -47 76
-105 l61 -105 60 0 60 0 -70 105 c-38 57 -70 107 -70 110 0 3 7 5 15 5 8 0 29
13 46 28 60 54 45 163 -29 206 -26 14 -60 20 -148 24 l-114 5 0 -242z m211
139 c23 -13 26 -62 3 -84 -10 -10 -33 -16 -65 -16 l-49 0 0 55 0 55 46 0 c25
0 54 -5 65 -10z"/>
<path d="M627 783 c-11 -11 -8 -315 4 -358 23 -85 108 -134 210 -122 69 8 110
34 137 87 20 41 22 57 22 222 l0 178 -50 0 -50 0 0 -165 c0 -210 -10 -235 -94
-235 -22 0 -40 8 -57 26 -23 25 -24 32 -27 200 l-4 174 -42 0 c-24 0 -46 -3
-49 -7z"/>
<path d="M1110 551 l0 -241 123 0 c97 0 130 4 162 19 78 35 119 110 119 216 0
75 -17 126 -57 172 -46 52 -85 65 -224 71 l-123 5 0 -242z m251 124 c68 -61
65 -215 -5 -261 -17 -10 -48 -17 -84 -18 l-57 -1 -3 154 -3 153 65 -4 c46 -3
71 -10 87 -23z"/>
<path d="M1610 550 l0 -240 140 0 140 0 0 40 0 40 -90 0 -90 0 0 55 0 55 80 0
80 0 0 45 0 45 -80 0 -80 0 0 55 0 55 90 0 90 0 0 45 0 45 -140 0 -140 0 0
-240z"/>
<path d="M2168 785 c-5 -5 -8 -113 -8 -242 l0 -233 130 0 c146 0 179 10 205
60 8 16 15 50 15 76 0 42 -4 51 -40 86 -23 21 -37 38 -33 38 15 0 43 57 43 85
0 41 -27 89 -60 109 -33 19 -238 36 -252 21z m204 -102 c43 -39 4 -93 -67 -93
l-45 0 0 55 0 55 47 0 c29 0 53 -6 65 -17z m32 -195 c22 -31 20 -45 -9 -73
-20 -21 -34 -25 -80 -25 l-55 0 0 60 0 60 64 0 c56 0 67 -3 80 -22z"/>
<path d="M2726 782 c-2 -4 -38 -100 -79 -212 -42 -113 -80 -217 -86 -232 l-11
-28 54 0 53 0 13 45 13 46 105 -3 105 -3 15 -42 c14 -43 14 -43 63 -43 27 0
49 2 49 5 0 3 -39 111 -86 240 l-87 235 -58 0 c-32 0 -60 -3 -63 -8z m102
-204 l32 -88 -71 0 c-53 0 -70 3 -67 13 3 6 17 50 33 95 15 46 31 80 35 75 4
-4 21 -47 38 -95z"/>
<path d="M3100 551 l0 -241 50 0 50 0 0 105 c0 77 3 105 13 105 6 0 39 -47 72
-105 l60 -104 58 -1 c31 0 57 2 57 5 0 3 -27 46 -60 96 -34 49 -63 95 -66 102
-2 7 8 17 25 23 86 33 86 185 -1 230 -22 12 -68 18 -145 22 l-113 5 0 -242z
m214 133 c23 -22 20 -60 -6 -78 -12 -9 -42 -16 -65 -16 l-43 0 0 55 0 55 49 0
c32 0 55 -6 65 -16z"/>
<path d="M3540 551 l0 -241 128 0 c110 0 131 3 160 20 36 22 62 72 62 117 0
28 -33 93 -47 93 -5 0 -14 4 -22 9 -12 7 -10 14 8 36 14 19 21 42 21 74 0 92
-46 121 -202 129 l-108 5 0 -242z m208 137 c17 -17 15 -58 -5 -80 -11 -12 -30
-18 -60 -18 l-43 0 0 55 0 55 48 0 c26 0 53 -5 60 -12z m26 -194 c9 -8 16 -28
16 -44 0 -40 -32 -60 -97 -60 l-53 0 0 60 0 60 59 0 c41 0 65 -5 75 -16z"/>
<path d="M3980 550 l0 -240 140 0 140 0 0 40 0 40 -90 0 -90 0 0 55 0 54 78 3
77 3 3 43 3 42 -80 0 -81 0 0 55 0 55 91 0 90 0 -3 43 -3 42 -137 3 -138 3 0
-241z"/>
<path d="M4360 551 l0 -241 50 0 50 0 0 105 c0 77 3 105 13 105 6 0 39 -47 72
-103 l61 -102 57 -3 c31 -2 57 0 57 3 0 3 -27 46 -60 96 -72 106 -78 119 -55
119 26 0 73 54 80 92 5 26 1 49 -13 81 -29 65 -61 79 -199 85 l-113 5 0 -242z
m214 133 c23 -22 20 -60 -6 -78 -12 -9 -42 -16 -65 -16 l-43 0 0 55 0 55 49 0
c32 0 55 -6 65 -16z"/>
<path d="M4865 776 c-56 -25 -80 -61 -80 -123 0 -49 3 -58 31 -83 18 -15 68
-40 113 -55 92 -30 118 -55 102 -97 -9 -25 -35 -38 -78 -38 -25 0 -83 46 -83
66 0 17 -8 17 -65 3 -42 -11 -43 -12 -33 -40 24 -69 119 -116 214 -106 96 10
143 50 151 130 7 76 -34 118 -155 158 -74 24 -102 43 -102 70 0 25 38 49 78
49 31 0 82 -36 82 -58 0 -5 19 -5 45 1 32 7 45 15 45 28 0 26 -48 78 -87 94
-44 18 -138 19 -178 1z"/>
</g>
</svg>
